<svg xmlns="http://www.w3.org/2000/svg" viewBox="0 0 1620 1620" xml:space="preserve"><path fill="#FFF" d="M923.053 1202.995c-6.268-2.146-12.197-4.115-17.965-6.474-6.154-2.516-12.027-5.758-18.261-8.025-6.206-2.256-12.834-3.348-19.044-5.594-5.826-2.107-11.322-5.114-17.019-7.6-1.734-.758-3.648-1.11-5.484-1.63-9.204-2.61-18.56-4.791-27.56-7.976-5.613-1.986-10.57-5.754-16.05-8.212-3.627-1.628-7.647-2.397-11.513-3.472-7.373-2.049-14.903-3.642-22.095-6.192-5.307-1.881-10.108-5.144-15.274-7.483-3.766-1.705-7.698-3.115-11.665-4.289-7.355-2.176-14.937-3.672-22.145-6.236-5.47-1.945-10.425-5.294-15.766-7.663-3.799-1.685-7.81-2.948-11.813-4.101-7.458-2.15-15.13-3.655-22.423-6.244-5.385-1.912-10.3-5.14-15.45-7.728-.98-.491-2.08-.747-3.137-1.073-6.308-1.95-12.624-3.873-18.928-5.836a291 291 0 0 1-8.746-2.851c-5.006-1.734-10.067-3.345-14.966-5.347-5.88-2.402-11.478-5.543-17.45-7.65-5.472-1.93-11.435-2.475-16.898-4.426-6.18-2.207-11.922-5.624-18.077-7.916-5.754-2.143-11.808-3.473-17.71-5.225-1.644-.488-3.196-1.28-4.83-1.809-7.374-2.386-15.674-3.353-21.894-7.47-6.3-4.17-12.737-8.796-16.476-16.802-4.457-9.542-4.26-18.727-3.495-28.505.66-8.457 1.024-16.964.939-25.443-.059-5.826-1.552-11.639-1.598-17.464-.048-6.126 1.013-12.253 1.306-18.392.19-3.987-.04-8.003-.238-11.998-.384-7.784-1.24-15.565-1.208-23.344.025-6.032 1.248-12.05 1.662-18.094.253-3.693.018-7.423-.062-11.135-.225-10.418-.688-20.837-.664-31.254.019-8.573 1.541-17.25.599-25.68-.624-5.573-.798-11.195-1.196-16.745-.446-6.216.865-12.544 1.195-18.834.201-3.84.141-7.71-.06-11.552-.444-8.514-1.41-17.017-1.466-25.53-.036-5.508 1.399-11.01 1.721-16.541.221-3.794-.456-7.631-.522-11.453a2088 2088 0 0 1-.319-30.429c-.018-7.204.346-14.413.181-21.61-.177-7.731-1.128-15.455-1.072-23.176.043-6.033 1.251-12.049 1.67-18.091.254-3.677.035-7.39-.046-11.085-.23-10.415-.705-20.83-.685-31.244.016-8.61 1.52-17.318.6-25.791-.59-5.44-.759-10.9-1.024-16.308-.325-6.654.609-13.365.905-20.056.17-3.854.276-7.719.205-11.575-.192-10.415-.702-20.828-.686-31.241.013-8.573.884-17.147.83-25.718-.035-5.568-1.48-11.127-1.51-16.695-.032-6.283.962-12.566 1.226-18.86.168-3.994-.12-8.011-.311-12.013-.392-8.217-1.718-16.506-1.01-24.622.545-6.268 1.044-13.313 7.538-17.617 5.781-3.831 11.058-8.427 16.865-12.214 1.547-1.01 4.225-.386 6.38-.344 6.398.127 12.352 1.039 18.276 4.382 6.684 3.773 14.256 6.09 21.613 8.52 7.215 2.382 14.791 3.702 21.933 6.259 5.383 1.927 10.249 5.25 15.498 7.61 3.768 1.696 7.731 3.03 11.71 4.17 7.56 2.163 15.345 3.637 22.744 6.232 5.157 1.81 9.768 5.133 14.744 7.529 2.15 1.035 4.606 1.436 6.923 2.127 9.272 2.766 18.67 5.18 27.768 8.434 5.377 1.923 10.262 5.21 15.406 7.807.972.49 2.128.61 3.194.918 10.22 2.958 20.55 5.587 30.614 9.004 6.236 2.119 11.882 5.977 18.118 8.095 10.113 3.435 20.605 5.754 30.715 9.196 5.249 1.787 9.939 5.157 15.038 7.464 3.765 1.703 7.73 3.025 11.7 4.197 7.359 2.171 14.932 3.702 22.138 6.276 5.468 1.953 10.43 5.281 15.762 7.676 3.644 1.636 7.484 2.9 11.328 4.011 7.456 2.156 15.118 3.685 22.425 6.244 5.393 1.89 10.353 5.012 15.518 7.558.99.488 2.015.933 3.068 1.257 6.612 2.036 13.237 4.032 19.858 6.04 1.078.327 2.16.64 3.236.976 8.148 2.546 16.433 4.761 23.48 9.928.642.471 1.44.786 2.213 1.013 7.783 2.292 15.607 4.452 23.357 6.85 6.304 1.951 12.616 3.938 18.754 6.346 6.37 2.5 12.411 5.856 18.825 8.218 5.446 2.004 11.276 2.936 16.828 4.687 6.403 2.02 12.66 4.263 18.403 8.092 3.296 2.198 7.74 2.723 11.71 3.847 7.36 2.085 14.902 3.635 22.079 6.213 5.38 1.933 10.217 5.327 15.467 7.692 3.765 1.697 7.756 2.967 11.744 4.075 7.006 1.946 14.393 3.278 19.396 9.074 2.728 3.16 4.958 6.99 6.467 10.884 1.128 2.91.808 6.403 1.013 9.643.245 3.856.33 7.722.54 11.58.424 7.774 1.245 15.546 1.214 23.317-.024 6.034-1.272 12.054-1.634 18.101-.228 3.805.222 7.646.289 11.473.18 10.283.496 20.568.418 30.85-.065 8.611-1.527 17.317-.616 25.792.597 5.566.815 11.191 1.216 16.74.47 6.483-.753 13.076-1.05 19.63-.18 3.98-.029 7.977.027 11.965.144 10.282.367 20.563.462 30.845.07 7.488-.157 14.98.008 22.466.16 7.308.986 14.614.887 21.912-.079 5.788-1.321 11.552-1.651 17.349-.218 3.835.24 7.712.437 11.568.428 8.378 1.22 16.755 1.206 25.13-.01 5.524-1.407 11.03-1.729 16.572-.22 3.794.462 7.632.527 11.454.173 10.142.288 20.286.314 30.43.019 7.205-.338 14.415-.172 21.614.178 7.788 1.132 15.569 1.061 23.346-.054 6.029-1.378 12.036-1.728 18.076-.22 3.798.427 7.637.494 11.461.178 10.129.317 20.259.345 30.388.02 7.206-.37 14.418-.206 21.618.179 7.796 1.154 15.584 1.095 23.37-.046 6.028-1.359 12.037-1.708 18.078-.22 3.818.392 7.678.46 11.523.177 10.132.306 20.265.366 30.398.043 7.392-.211 14.788-.048 22.177.177 7.972 1.016 15.941.934 23.905-.055 5.448-1.374 10.871-1.786 16.331-.302 4.009.185 8.075-.089 12.088-.743 10.886-6.357 22.902-20.399 26.329-9.585 2.339-17.388-1.001-25.77-3.812-5.5-1.845-11.351-2.693-16.768-4.727-6.224-2.336-12.068-5.664-18.219-8.22-3.746-1.557-7.786-2.391-11.646-3.692-9.688-3.264-19.341-6.63-29.022-9.915-8.157-2.767-15.798-7.413-23.915-9.396-5.939-1.45-11.906-3.212-17.785-4.875-5.761-1.629-11.03-4.955-16.582-7.386-3.647-1.597-7.343-3.145-11.14-4.323-5.038-1.564-10.194-2.746-15.71-4.097m17.185-687.923c-3.038-1.035-6.07-2.085-9.113-3.104-4.87-1.63-9.777-3.152-14.612-4.879-7.369-2.63-14.667-5.457-22.035-8.088-6.98-2.492-14.049-4.736-21.007-7.284-5.218-1.91-10.26-4.302-15.488-6.18-18.45-6.627-36.953-13.105-55.422-19.678-13.974-4.973-27.954-9.936-41.884-15.03-11.96-4.374-23.86-8.91-35.773-13.412-3.727-1.409-7.359-3.084-11.125-4.37-3.505-1.197-7.234-1.767-10.684-3.086-12.586-4.813-25.042-9.974-37.662-14.695-5.749-2.15-11.808-3.455-17.652-5.37-6.582-2.156-13.103-4.507-19.61-6.884-6.165-2.252-12.235-4.767-18.422-6.952-12.659-4.472-25.392-8.732-38.029-13.262-1.917-.688-3.317-2.867-5.237-3.49-12.087-3.921-24.567-6.829-36.287-11.614-8.296-3.388-15.351-2.433-21.73 2.427-4.985 3.797-9.453 8.52-8.664 16.23.468 4.574-1.01 9.343-1.553 14.032-.067.58.32 1.197.367 1.807.285 3.659.736 7.32.746 10.98.02 6.763-.297 13.526-.342 20.29-.057 8.502-.05 17.006.077 25.507.038 2.586.863 5.171.808 7.746-.14 6.485-.625 12.962-.882 19.446-.251 6.309-.403 12.621-.567 18.933-.019.734.169 1.472.253 2.209.386 3.387 1.11 6.777 1.084 10.162-.052 6.945-.645 13.886-.757 20.832-.14 8.675-.085 17.355.033 26.03.033 2.421.897 4.841.842 7.249-.145 6.319-1.043 12.65-.783 18.94.27 6.513 2.001 12.99-.996 19.335-.269.57.38 1.527.47 2.319.402 3.528 1.068 7.063 1.06 10.594-.017 6.954-.593 13.907-.612 20.861-.023 8.085.285 16.172.486 24.257.07 2.82.425 5.642.342 8.453-.19 6.44-.737 12.872-.833 19.312-.125 8.337-.016 16.679.126 25.017.047 2.749.786 5.497.727 8.234-.141 6.486-.602 12.963-.875 19.446-.264 6.292-.46 12.586-.665 18.88-.02.597.105 1.199.158 1.8.366 4.128.92 8.252 1.038 12.388.102 3.592-.493 7.203-.421 10.799.156 7.893.642 15.78.738 23.672.018 1.481-1.712 2.991-1.673 4.462.153 5.797.838 11.578 1.052 17.375.358 9.683 1.738 19.552.362 29.005-1.143 7.853.373 15.37-.07 23.065-.765 13.288-.062 26.661.069 39.998.029 2.981.419 5.966.323 8.94-.197 6.158-.831 12.31-.88 18.467-.063 8.256.233 16.516.428 24.774.056 2.382.466 4.763.422 7.139-.193 10.452-.513 20.9-.741 31.352-.066 3-.74 6.267.19 8.952 2.458 7.097 6.553 13.315 13.91 16.198 10.197 3.995 20.532 7.642 30.847 11.329 15.644 5.59 31.351 11.005 46.974 16.651 11.954 4.32 23.826 8.868 35.72 13.35 3.422 1.289 6.747 2.852 10.21 4.014 3.51 1.178 7.215 1.79 10.693 3.042 9.845 3.545 19.63 7.262 29.412 10.976 3.261 1.239 6.382 2.867 9.68 3.984 7.66 2.596 15.453 4.813 23.076 7.511 8.44 2.988 16.696 6.496 25.132 9.498 12.52 4.456 25.168 8.554 37.685 13.02 8.776 3.13 17.375 6.756 26.14 9.92 13.14 4.745 26.378 9.22 39.536 13.918 17.144 6.12 34.274 12.284 51.366 18.548 10.885 3.989 21.695 8.179 32.527 12.31 3.6 1.373 7.1 3.036 10.752 4.237 11.94 3.926 23.98 7.556 35.883 11.587 7.207 2.44 14.186 5.544 21.351 8.116 14.686 5.272 29.46 10.3 44.138 15.593 12.94 4.665 25.814 9.515 38.684 14.37 2.459.929 4.673 2.543 7.16 3.349 3.99 1.294 8.271 1.779 12.148 3.316 9.02 3.578 18.08 1.756 24.22-5.41 1.522-1.775 3.984-3.532 4.206-5.502 1.07-9.487 1.815-19.034 2.105-28.578.25-8.198-.253-16.42-.461-24.632-.077-3.04-.446-6.084-.359-9.118.185-6.485.637-12.962.872-19.446.223-6.159.312-12.322.454-18.484.017-.733.067-1.473-.009-2.198-.371-3.533-1.111-7.062-1.106-10.592.01-6.617.576-13.231.667-19.85.125-9.01.086-18.022-.027-27.031-.03-2.42-.89-4.84-.838-7.248.142-6.485 1.056-12.987.747-19.439-.297-6.195-1.983-12.337.996-18.336.25-.505-.031-1.28-.081-1.929-.352-4.548-.912-9.093-1.012-13.647-.148-6.72-.028-13.449.088-20.172.095-5.5.364-10.997.525-16.495.025-.87-.151-1.745-.174-2.62-.156-5.975-.35-11.95-.422-17.927a456 456 0 0 1 .07-14.978c.115-5.498.376-10.993.54-16.49.025-.873-.154-1.75-.195-2.627-.214-4.505-.571-9.01-.581-13.516-.014-6.55.196-13.102.367-19.651.15-5.806.39-11.61.558-17.415.021-.733-.176-1.47-.22-2.207-.224-3.658-.597-7.316-.606-10.975-.017-6.772.255-13.544.276-20.316q.04-12.51-.16-25.02c-.046-2.908-.67-5.815-.618-8.715.114-6.49.668-12.974.69-19.462.015-4.44-1.789-9.238-.62-13.247 2.235-7.666-.486-15.059.31-22.612.746-7.082-.51-14.355-.52-21.544-.01-6.425.588-12.847.7-19.275.052-2.902-.669-5.817-.611-8.718.129-6.487 1.03-12.997.668-19.445-.339-6.045-1.747-12 .931-17.868.29-.633-.063-1.568-.143-2.36-.433-4.277-1.171-8.547-1.245-12.83-.12-6.995.15-14 .335-20.998.14-5.35.409-10.695.605-16.043.032-.874-.002-1.752-.03-2.627-.192-5.971-.76-11.958-.494-17.908.348-7.805-2.642-13.882-8.297-18.86-2.011-1.771-4.068-3.877-6.492-4.73-12.647-4.451-25.44-8.483-38.135-12.802-4.913-1.672-9.655-3.842-14.552-5.568-16.245-5.724-32.564-11.241-48.779-17.048-12.291-4.402-24.486-9.076-36.68-13.744-2.827-1.082-5.375-2.918-8.225-3.907-6.834-2.37-13.772-4.443-21.377-7.015"/><path fill="#FFF" d="M771.999 728.774c-.667 8.338-1.507 16.191-1.96 24.066-.806 13.977-1.314 27.972-2.068 41.952-.558 10.368-1.295 20.726-1.975 31.087-1.067 16.264-2.238 32.522-3.195 48.792-.466 7.905-.443 15.838-.834 23.749-.38 7.7-3.231 13.859-12.4 14.692-9.02.82-17.961 2.457-26.948 3.655-4.55.607-10.574-4.166-10.525-8.903.105-10.17.572-20.343 1.136-30.501.652-11.735 1.609-23.452 2.354-35.181.548-8.62.978-17.247 1.445-25.871.665-12.272 1.183-24.554 2.003-36.815 1.191-17.81 2.657-35.603 3.888-53.41.802-11.602 1.43-23.215 2.072-34.826 1.034-18.748 1.97-37.502 3.036-56.248.56-9.868 1.364-19.722 1.954-29.589.436-7.275 1.359-14.601.903-21.832-.835-13.25-10.06-22.36-24.952-24.7-10.608-1.667-20.845-.167-31.124 1.768-4.435.835-8.754 2.268-13.154 3.311-9.022 2.14-13.466 9.72-19.057 15.931-1.309 1.454-2.293 3.207-3.644 4.614-4.102 4.272-4.145 7.802.7 11.524 7.047 5.415 14.409 10.419 21.604 15.642 7.388 5.363 14.498 11.155 22.19 16.031 4.774 3.027 9.422 7.349 15.916 6.271 7.025-1.165 8.472 5.172 5.705 9.211-6.135 8.952-12.961 17.45-19.862 25.839-1.363 1.656-4.357 2.852-6.553 2.784-8.589-.267-17.322.033-24.93-5.428-13.099-9.401-26.417-18.496-39.606-27.771-9.272-6.52-18.484-13.127-27.721-19.697-3.626-2.578-7.322-5.065-10.858-7.76-9.324-7.11-9.946-13.455-2.64-22.806 9.964-12.75 19.638-25.728 29.737-38.369 6.2-7.761 12.966-15.07 19.47-22.59 6.759-7.814 15.678-10.358 25.61-11.52 15.769-1.842 31.427-4.6 47.16-6.767 13.448-1.853 26.947-3.332 40.4-5.145 7.26-.978 14.454-2.46 21.715-3.432 5.531-.74 11.121-1.407 16.687-1.423 5.531-.016 9.419 6.226 9.329 13.484-.124 10.015.255 20.043-.1 30.048-.403 11.344-1.324 22.672-2.129 34-.483 6.8-1.33 13.575-1.734 20.378-.5 8.42-.599 16.864-1.067 25.287-.926 16.63-2.033 33.25-2.976 49.88-.782 13.79-1.426 27.588-2.15 41.382-.257 4.912-.566 9.821-.852 15.206m179.955 125.462c-1.34-7.991-2.785-15.517-3.921-23.09-1.818-12.12-3.348-24.285-5.157-36.408-1.492-9.994-3.37-19.932-4.793-29.935-2.135-15.02-10.653-24.98-24.262-30.742-4.728-2.002-6.686-5.017-5.75-9.84.348-1.786 1.112-3.811 2.359-5.05 5.931-5.888 12.68-11.05 18.027-17.405 6.587-7.83 14.103-11.248 24.278-9.889 5.24.7 10.65.123 15.983.123 8.64 0 10.224 1.879 11.364 10.477 1.951 14.718 4.462 29.36 6.68 44.044 1.465 9.692 2.837 19.398 4.234 29.1 1.7 11.806 3.31 23.625 5.095 35.417 1.537 10.158 3.296 20.283 4.899 30.43 2.342 14.828 4.718 29.65 6.918 44.499 1.82 12.288 3.394 24.612 5.114 36.915.224 1.6.575 3.196 1.025 4.748 1.039 3.583 3.674 4.469 6.066 1.645 6.456-7.624 12.708-15.428 18.807-23.34 1.2-1.556 2.378-4.323 1.788-5.837-1.763-4.524 2.386-6.031 3.923-8.69.579-1.001 4.084-1.553 5.234-.784 9.348 6.25 18.524 12.767 27.61 19.397 6.04 4.408 3.322 10.877 3.18 16.545-.298 11.793-9.014 19.16-15.43 27.603-9.552 12.568-19.52 24.82-29.303 37.213-2.637 3.342-5.358 6.628-7.833 10.088-2.704 3.78-6.72 2.986-10.023 2.384-10.201-1.86-20.489-3.714-30.36-6.797-12.823-4.005-17.71-14.124-18.842-27.017-.898-10.217-3.072-20.319-4.584-30.486-1.49-10.021-2.813-20.067-4.293-30.09-1.454-9.849-3.065-19.674-4.51-29.524-1.235-8.41-2.331-16.84-3.523-25.704M796.801 602.698c5.5-5.178 10.823-10.018 15.977-15.03 3.23-3.142 6.771-4.876 11.425-4.73 7.488.233 14.989.045 22.484.067 6.632.02 11.21 3.715 12.241 10.237 1.478 9.352 2.653 18.752 4.087 28.112 1.56 10.182 3.361 20.327 4.886 30.515 1.796 11.996 3.336 24.03 5.12 36.028 1.535 10.32 3.355 20.597 4.87 30.92 1.805 12.283 3.284 24.615 5.15 36.888 2.132 14.02 4.527 27.999 6.824 41.993 1.715 10.448 2.554 21.148 5.426 31.27 3.221 11.35 9.985 20.523 22.58 23.443.947.22 1.898.502 2.86.57 7.113.503 10.34 6.627 6.098 12.548-4.947 6.905-10.539 13.349-15.85 19.993-1.329 1.661-2.665 3.317-3.98 4.989-2.653 3.369-6.167 4.83-10.376 4.473-13.35-1.129-26.383-3.25-38.024-10.683-5.537-3.535-8.558-8.557-9.493-14.682-2.882-18.883-5.314-37.835-8.156-56.725-2.109-14.021-4.697-27.97-6.86-41.984-2.168-14.039-3.99-28.13-6.113-42.176-2.193-14.51-4.633-28.983-6.836-43.492-1.496-9.85-2.668-19.749-4.17-29.598-1.761-11.562-7.542-20.618-17.556-26.788-2.465-1.52-5.156-2.675-7.754-3.976-4.98-2.494-6.379-10.1-2.502-14.479 2.313-2.613 4.919-4.967 7.642-7.703M625 966v76.69c-5.13-1.553-9.65-2.926-14.174-4.286-.623-.187-1.279-.269-1.898-.466-7.758-2.47-7.518-2.434-6.14-10.745.492-2.962-.788-6.173-.73-9.26.167-8.786.693-17.565.876-26.351.043-2.063-.707-4.142-1.204-6.814-3.315 6.165-6.707 11.678-9.255 17.557-1.23 2.836-2.754 3.697-5.418 3.677-2-.015-4.03-.221-5.994.044-3.923.53-5.597-1.761-7.027-4.835-2.648-5.69-5.471-11.297-9.037-16.801v7.665c0 8.208-.056 16.416.025 24.623.039 3.906-1.083 5.048-5.07 3.402-4.323-1.784-8.948-2.867-13.485-4.09-3.084-.832-4.614-2.25-4.55-5.834.36-20.204.47-40.413.657-60.62.088-9.556.08-9.556 9.28-9.556 1.333 0 2.684.14 3.997-.024 5.692-.717 8.901 1.066 11.406 6.953 4.622 10.865 10.736 21.094 16.498 32.105 3.848-7.748 7.57-15.197 11.25-22.665 2.424-4.92 4.618-9.964 7.317-14.724.593-1.044 2.874-1.504 4.406-1.572 4.544-.201 9.11.088 13.652-.125 3.427-.16 4.789.987 4.68 4.554C624.85 951.496 625 958.5 625 966"/><path fill="#FFF" d="M694.958 906.812c.374-8.794.663-17.206 1.094-25.611.594-11.569 1.191-23.139 1.972-34.695 1.222-18.11 2.617-36.206 3.9-54.31.42-5.928.765-11.86 1.063-17.795.698-13.862 1.247-27.733 2.041-41.59.886-15.47 1.973-30.928 2.978-46.391 1.154-17.76 2.324-35.517 3.467-53.277.811-12.604 2.288-25.222 2.067-37.81-.099-5.657-2.536-12.035-5.873-16.677-3.921-5.454-10.861-3.944-16.902-3.04-9.707 1.451-16.672.314-22.492-8.798 1.153-.354 2.19-.873 3.264-.97a1871 1871 0 0 1 22.662-1.869c2.044-.158 4.116-.363 6.147-.197 14.475 1.177 20.983 9.768 23.312 21.867 1.671 8.687.564 17.965.252 26.963-.407 11.74-1.159 23.471-1.932 35.195-1.232 18.693-2.652 37.373-3.898 56.065-.784 11.772-1.428 23.554-2.072 35.335-1.033 18.92-1.966 37.844-3.038 56.762-.55 9.704-1.353 19.393-1.96 29.095-1.04 16.627-1.993 33.26-3.028 49.889-.615 9.867-1.319 19.729-1.983 29.593-.332 4.933-.714 9.862-.979 14.798-.17 3.173 1.383 4.336 4.546 3.835 11.113-1.76 22.233-3.482 33.373-5.061 2.444-.347 4.98-.051 7.5-.051-1.099 5.095-9.199 12.05-15.005 12.907-9.064 1.34-18.13 2.662-27.205 3.925-5.238.728-13.718-5.855-14.077-11.626-.33-5.322.479-10.715.806-16.461m308.072 262.678c-.022 5.324-.022 10.197-.022 15.04-7.181.52-17.34-6.093-20.416-12.215-3.93-7.823-8.514-15.317-12.744-22.993-3.098-5.623-6.079-11.31-10.067-16.735v38.599c-2.274-.425-4.432-.641-6.472-1.25-4.002-1.193-7.858-3.036-11.927-3.8-3.732-.702-4.48-2.693-4.399-5.89.334-13.042.775-26.084.832-39.128.037-8.436-.59-16.873-.79-25.313-.12-5.128 1.445-6.27 6.559-5.632 2.5.311 5.23-.396 7.543.341 2.148.686 4.534 2.278 5.69 4.161 7.687 12.538 15.073 25.26 22.632 38.05.583-.485 1.243-.779 1.242-1.07-.026-7.557-.122-15.114-.204-22.671-.015-1.384-.005-2.768-.03-4.151-.062-3.38.026-6.773-.254-10.135-.27-3.236 1.084-4.572 4.19-4.558 4.755.021 9.515-.13 14.264.026 2.645.087 4.668.512 4.582 4.436-.205 9.29.439 18.595.563 27.896.07 5.153-.341 10.312-.317 15.467.047 9.768.266 19.535.354 29.302.005.589-.513 1.181-.81 2.223m-220.405-111.75c-.822 1.393-2.027 2.834-1.707 3.733 1.839 5.166 3.836 10.304 6.243 15.224.711 1.454 2.849 2.313 4.467 3.2 3.791 2.076 5.91 4.797 5.463 9.494-.42 4.412-.09 8.896-.09 14.12-5.646-2.444-10.49-5.099-15.665-6.652-7.871-2.364-11.996-7.676-15.065-14.93-2.941-6.952-7.048-13.41-10.643-20.085l-1.417.31c.23 2.603.604 5.204.661 7.812.126 5.682.293 11.378.03 17.049-.123 2.675-1.517 4.687-4.944 3.485-4.585-1.607-9.229-3.048-13.855-4.536-2.756-.887-4.224-2.253-4.196-5.643.184-21.816.16-43.635.03-65.452-.022-3.624.985-5.025 4.797-4.942 10.082.218 20.178-.13 30.26.115 22.636.55 31.17 20.299 24.662 38.095-1.354 3.701-5.728 6.297-9.031 9.604m-17.292-26.938c-2.91-.261-5.818-.599-8.735-.715-.545-.022-1.595.82-1.615 1.297-.169 4.007-.762 8.175.182 11.94.284 1.132 4.99 1.38 7.706 1.621 4.248.377 6.992-2.13 7.967-5.893.987-3.81-.959-6.627-5.505-8.25M706 1044.97c2.102 10.066 4.202 19.697 6.501 30.237-2.521-.426-4.227-.549-5.832-1.018-4.513-1.318-8.91-3.146-13.495-4.075-4.042-.819-5.097-2.687-5.32-6.695-.469-8.423-1.752-16.8-2.727-25.418-6.144 0-11.634-.215-17.086.149-1.396.093-3.5 1.803-3.846 3.14-1.097 4.237-1.787 8.63-2.111 13.002-.266 3.585-1.862 4.246-4.881 3.35-5.27-1.564-10.57-3.03-15.803-4.707-2.63-.843-3.724-2.128-2.709-5.525 4.724-15.815 9.03-31.756 13.392-47.678 1.778-6.49 3.088-13.118 5.138-19.514.46-1.435 3.097-3.016 4.781-3.074 8.917-.304 17.852-.015 26.775-.217 2.867-.064 3.755 1.318 4.201 3.63 2.032 10.533 3.981 21.082 6.121 31.591 2.203 10.816 4.592 21.594 6.9 32.822m-31.988-44.27-4.67 19.114h11.074c-1.23-5.863-2.324-11.591-3.715-17.246-.258-1.05-1.712-1.807-2.69-1.868m394.158 210.258c-11.695-3.994-22.925-8.135-34.303-11.816-3.576-1.157-4.982-2.632-4.952-6.519.177-22.964.087-45.93.087-69.16 1.1-.171 2.03-.44 2.961-.442 15.819-.027 31.638.023 47.456-.055 3.499-.017 5.059.612 4.168 4.809-.713 3.36-.035 7.045.218 10.572.319 4.454-2.54 4.67-5.77 4.658-8.827-.032-17.654-.011-26.53-.011l-.64 8.006c7.837 0 15.334.264 22.8-.096 4.686-.227 5.787 1.691 5.359 5.86-.293 2.852-.084 5.762-.009 8.643.084 3.17-.603 4.437-4.486 4.003-6.474-.723-13.072-.333-19.618-.408-2.4-.028-3.317.264-3.572 3.538-.958 12.27-1.957 10.852 12.54 16.372 5.41 2.06 10.922 3.847 16.377 5.787 3.41 1.213 4.202 3.555 3.51 7.04a24.9 24.9 0 0 0-.225 8.214c.58 4.087-1.094 5.998-5.055 4.767-3.365-1.045-6.61-2.472-10.316-3.762M803 678.163c-.667-4.813-1.546-9.19-1.895-13.607-.139-1.763.892-3.618 1.391-5.431 1.932 1.183 4.285 1.994 5.718 3.617 4.609 5.22 5.809 11.82 6.808 18.485 1.885 12.574 4.078 25.103 5.87 37.69 1.871 13.148 3.25 26.367 5.163 39.51 1.647 11.312 3.86 22.542 5.603 33.842 1.296 8.4 2.178 16.865 3.361 25.284 1.044 7.43 2.273 14.833 3.378 22.255 1.226 8.232 2.42 16.468 3.598 24.707.764 5.342.57 11.035 2.433 15.953 2.528 6.672 8.594 10.269 15.286 12.555 9.958 3.403 20.229 4.767 30.708 5.019 2.833.068 5.654.648 8.675 1.017-2.984 7-12.189 11.403-20.566 9.844-7.166-1.334-14.23-3.224-21.321-4.942-8.137-1.97-14.886-6.677-19.535-13.193-3.127-4.383-4.499-10.349-5.54-15.82-2.041-10.73-3.351-21.601-4.874-32.427-1.48-10.513-2.807-21.047-4.274-31.562-1.286-9.214-2.646-18.418-4.02-27.62-2.639-17.677-5.31-35.348-7.969-53.022-2.33-15.486-4.655-30.973-7.002-46.457-.268-1.768-.66-3.518-.995-5.697m186.125 328.792c11.13 1.482 21.85 2.93 32.574 4.378-1.823 6.143-10.703 10.997-18.75 9.52-8.852-1.627-17.983-2.947-26.258-6.244-13.698-5.459-20.552-13.813-21.78-29.5-.597-7.63-2.145-15.184-3.23-22.778-1.246-8.727-2.404-17.467-3.697-26.187-1.316-8.871-2.75-17.725-4.13-26.587-2.266-14.545-4.639-29.075-6.765-43.641-1.845-12.648-3.269-25.357-5.138-38.001-2.025-13.699-4.365-27.35-6.532-41.029-.543-3.433-1.192-6.879-1.32-10.336-.066-1.79.904-3.616 1.406-5.426 1.848 1.042 4.095 1.714 5.474 3.194 5.047 5.417 5.993 12.455 7.014 19.417 2.918 19.89 5.797 39.787 8.817 59.662 2.627 17.286 5.568 34.525 8.1 51.825 1.918 13.095 3.27 26.273 5.143 39.376 1.267 8.86 3.062 17.645 4.505 26.482.92 5.644 2.3 11.326 2.266 16.984-.043 7.34 4.592 10.888 9.773 13.942 3.715 2.19 8.057 3.314 12.528 4.949m-137.132 65.306c-.325 8.568-.884 16.68-.915 24.792-.025 6.778.264 13.59.97 20.33.728 6.95-.367 7.97-7.185 5.683-3.53-1.184-7.119-2.301-10.768-2.994-3.675-.698-5.235-2.252-5.183-6.253.21-16.153.087-32.311.087-48.467V1060c-4.553 0-8.694-.273-12.783.074-4.356.37-5.59-1.444-5.274-5.48.274-3.476.175-6.996.022-10.487-.13-2.975.97-4.166 4.043-4.15 16.988.092 33.979.15 50.966-.022 4.972-.05 3.508 3.623 3.812 5.96.427 3.283.215 6.664.107 9.998-.072 2.216-.546 4.207-3.566 4.133-4.488-.111-8.98-.03-14.338-.03 0 4.022 0 7.916.005 12.265M886 1116v-51.989c6.91 0 13.517-.157 20.101.166 1.021.05 2.765 2.308 2.758 3.538-.033 6.61-.763 13.217-.769 19.826-.006 6.611.658 13.22.827 19.836.075 2.947-.476 5.906-.495 8.86-.015 2.23.515 4.461.54 6.694.078 6.828.029 13.658.029 21.32-2.714-.462-5.081-.636-7.306-1.292-3.851-1.135-7.53-3.135-11.439-3.712-3.62-.535-4.25-2.353-4.247-5.258.007-5.83.001-11.66.001-17.99M577.279 621.773c13.673 9.663 26.99 19.207 40.519 28.44 11.817 8.066 23.72 16.034 35.922 23.492 3.43 2.097 8.037 2.303 12.13 3.262 2.409.565 6.295-1.453 6.093 3.45-.131 3.17-4.691 7.56-7.668 7.157-3.99-.54-8.28-.88-11.78-2.63-7.78-3.89-15.423-8.195-22.629-13.06-16.355-11.043-32.402-22.542-48.597-33.823-6.286-4.379-12.526-8.84-18.985-12.95-5.126-3.263-5.963-5.12-3.9-11.025.692-1.978.942-4.123 1.75-6.043.361-.86 1.609-1.88 2.436-1.864.807.016 2.374 1.425 2.266 1.938-1.215 5.726 3.278 6.983 6.755 9.172 1.93 1.215 3.623 2.808 5.688 4.484"/></svg>